<svg xmlns="http://www.w3.org/2000/svg" viewBox="0 0 128 128">
  <defs>
    <linearGradient id="g" x1="0" y1="0" x2="1" y2="1">
      <stop offset="0" stop-color="#76bbff"/>
      <stop offset="1" stop-color="#79d8a9"/>
    </linearGradient>
  </defs>
  <rect width="128" height="128" rx="28" fill="#0d1219"/>
  <path d="M92 31c-10-9-24-12-38-8-12 4-21 13-25 25-4 13-1 28 8 38 8 9 20 15 33 15 11 0 21-4 29-11l-12-13c-5 4-11 6-17 6-9 0-17-4-22-11-4-6-6-14-4-21 2-7 8-13 15-15 8-2 17 0 23 6l-8 8h28V22z" fill="url(#g)"/>
  <circle cx="62" cy="48" r="5" fill="#0d1219"/>
</svg>
